<?xml version="1.0" encoding="UTF-8" standalone="no"?>
<svg
   xmlns:dc="http://purl.org/dc/elements/1.1/"
   xmlns:cc="http://creativecommons.org/ns#"
   xmlns:rdf="http://www.w3.org/1999/02/22-rdf-syntax-ns#"
   xmlns:svg="http://www.w3.org/2000/svg"
   xmlns="http://www.w3.org/2000/svg"
   xmlns:sodipodi="http://sodipodi.sourceforge.net/DTD/sodipodi-0.dtd"
   xmlns:inkscape="http://www.inkscape.org/namespaces/inkscape"
   width="102.67809mm"
   height="71.304947mm"
   viewBox="0 0 102.67809 71.304947"
   version="1.1"
   id="svg8"
   inkscape:version="1.0.1 (3bc2e813f5, 2020-09-07)"
   sodipodi:docname="camera-coordinate-system.svg">
  <defs
     id="defs2">
    <marker
       style="overflow:visible"
       id="marker922"
       refX="0"
       refY="0"
       orient="auto"
       inkscape:stockid="Arrow1Lend"
       inkscape:isstock="true">
      <path
         transform="matrix(-0.8,0,0,-0.8,-10,0)"
         style="fill:#000000;fill-opacity:1;fill-rule:evenodd;stroke:#000000;stroke-width:1pt;stroke-opacity:1"
         d="M 0,0 5,-5 -12.5,0 5,5 Z"
         id="path920" />
    </marker>
    <marker
       style="overflow:visible"
       id="Arrow1Lstart"
       refX="0"
       refY="0"
       orient="auto"
       inkscape:stockid="Arrow1Lstart"
       inkscape:isstock="true">
      <path
         transform="matrix(0.8,0,0,0.8,10,0)"
         style="fill:#000000;fill-opacity:1;fill-rule:evenodd;stroke:#000000;stroke-width:1pt;stroke-opacity:1"
         d="M 0,0 5,-5 -12.5,0 5,5 Z"
         id="path892" />
    </marker>
    <marker
       style="overflow:visible"
       id="marker1234"
       refX="0"
       refY="0"
       orient="auto"
       inkscape:stockid="Arrow1Lend"
       inkscape:isstock="true"
       inkscape:collect="always">
      <path
         transform="matrix(-0.8,0,0,-0.8,-10,0)"
         style="fill:#000000;fill-opacity:1;fill-rule:evenodd;stroke:#000000;stroke-width:1pt;stroke-opacity:1"
         d="M 0,0 5,-5 -12.5,0 5,5 Z"
         id="path1232" />
    </marker>
    <marker
       style="overflow:visible"
       id="marker1212"
       refX="0"
       refY="0"
       orient="auto"
       inkscape:stockid="Arrow1Lend"
       inkscape:isstock="true">
      <path
         transform="matrix(-0.8,0,0,-0.8,-10,0)"
         style="fill:#000000;fill-opacity:1;fill-rule:evenodd;stroke:#000000;stroke-width:1pt;stroke-opacity:1"
         d="M 0,0 5,-5 -12.5,0 5,5 Z"
         id="path1210" />
    </marker>
    <marker
       style="overflow:visible"
       id="Arrow1Lend"
       refX="0"
       refY="0"
       orient="auto"
       inkscape:stockid="Arrow1Lend"
       inkscape:isstock="true">
      <path
         transform="matrix(-0.8,0,0,-0.8,-10,0)"
         style="fill:#000000;fill-opacity:1;fill-rule:evenodd;stroke:#000000;stroke-width:1pt;stroke-opacity:1"
         d="M 0,0 5,-5 -12.5,0 5,5 Z"
         id="path895" />
    </marker>
  </defs>
  <sodipodi:namedview
     id="base"
     pagecolor="#ffffff"
     bordercolor="#666666"
     borderopacity="1.0"
     inkscape:pageopacity="0.0"
     inkscape:pageshadow="2"
     inkscape:zoom="44.8"
     inkscape:cx="151.96073"
     inkscape:cy="5.4918696"
     inkscape:document-units="mm"
     inkscape:current-layer="layer1"
     inkscape:document-rotation="0"
     showgrid="false"
     fit-margin-top="0"
     fit-margin-left="0"
     fit-margin-right="0"
     fit-margin-bottom="0"
     inkscape:window-width="1918"
     inkscape:window-height="1059"
     inkscape:window-x="0"
     inkscape:window-y="0"
     inkscape:window-maximized="1" />
  <metadata
     id="metadata5">
    <rdf:RDF>
      <cc:Work
         rdf:about="">
        <dc:format>image/svg+xml</dc:format>
        <dc:type
           rdf:resource="http://purl.org/dc/dcmitype/StillImage" />
        <dc:title></dc:title>
      </cc:Work>
    </rdf:RDF>
  </metadata>
  <g
     inkscape:label="Layer 1"
     inkscape:groupmode="layer"
     id="layer1"
     transform="translate(-55.618612,-7.2160983)">
    <rect
       style="fill:none;stroke:#000000;stroke-width:0.254002;stroke-opacity:0.999967"
       id="rect833"
       width="64.519669"
       height="52.238518"
       x="98.759094"
       y="-16.358355"
       transform="matrix(0.9687339,0.24810205,0,1,0,0)" />
    <path
       id="path835"
       style="fill:#000000;fill-opacity:1;stroke:#000000;stroke-width:0.999999px;stroke-linecap:butt;stroke-linejoin:miter;stroke-opacity:1"
       d="m 231.39453,279.80273 a 2.0561805,2.0561805 0 0 0 -1.52539,1.98633 2.0561805,2.0561805 0 0 0 2.05469,2.05664 2.0561805,2.0561805 0 0 0 0.96094,-0.24023 11.222435,10.734263 0 0 0 -1.49024,-3.80274 z"
       transform="scale(0.26458333)" />
    <path
       style="fill:none;stroke:#000000;stroke-width:0.264583px;stroke-linecap:butt;stroke-linejoin:miter;stroke-opacity:1"
       d="m 63.208989,70.690675 -7.303357,4.982742 7.42828,2.72342"
       id="path835-3" />
    <path
       id="path835-6"
       style="fill:none;stroke:#000000;stroke-width:0.264583px;stroke-linecap:butt;stroke-linejoin:miter;stroke-opacity:1"
       d="m 59.926058,72.930431 -4.020426,2.742986 4.926314,1.806091 a 2.9692693,2.8401071 0 0 0 0.827339,-1.966807 2.9692693,2.8401071 0 0 0 -1.733227,-2.58227 z" />
    <path
       style="fill:none;stroke:#000000;stroke-width:0.265;stroke-linecap:butt;stroke-linejoin:miter;stroke-miterlimit:4;stroke-dasharray:none;stroke-opacity:1;marker-end:url(#Arrow1Lend)"
       d="M 61.617428,75.03728 C 125.53057,41.72753 125.53057,41.72753 125.53057,41.72753"
       id="path890" />
    <ellipse
       style="fill:#000000;fill-opacity:1;stroke:#000000;stroke-width:0.266699;stroke-miterlimit:4;stroke-dasharray:none;stroke-opacity:0.999967"
       id="path1380"
       cx="96.782608"
       cy="-107.48241"
       rx="0.62013417"
       ry="0.49576434"
       transform="matrix(0.32117191,0.94702091,-0.8839368,0.46760639,0,0)" />
    <ellipse
       style="fill:#000000;fill-opacity:1;stroke:#000000;stroke-width:0.50457;stroke-opacity:0.999967"
       id="path908"
       cx="95.653076"
       cy="8.1986685"
       rx="0.45547998"
       ry="0.73028517" />
    <path
       style="fill:none;stroke:#000000;stroke-width:0.264002;stroke-linecap:butt;stroke-linejoin:miter;stroke-miterlimit:4;stroke-dasharray:none;stroke-opacity:1;marker-end:url(#marker1234)"
       d="m 158.17379,24.029186 c 0,0 0,0 -62.507575,-15.8858491 1e-6,51.8416511 1e-6,51.8416511 1e-6,51.8416511"
       id="path910" />
    <path
       style="fill:none;stroke:#000000;stroke-width:0.262126px;stroke-linecap:butt;stroke-linejoin:miter;stroke-opacity:1;marker-end:url(#marker922)"
       d="M 95.670976,8.1427892 157.77849,23.954213"
       id="path918" />
    <text
       xml:space="preserve"
       style="font-style:normal;font-weight:normal;font-size:10.5833px;line-height:0;font-family:sans-serif;letter-spacing:0px;word-spacing:0px;fill:#000000;fill-opacity:1;stroke:none;stroke-width:0.264583"
       x="128.73999"
       y="39.817745"
       id="text1040"
       transform="skewX(-11.421489)"><tspan
         sodipodi:role="line"
         id="tspan1038"
         x="128.73999"
         y="39.817745"
         style="font-style:normal;font-variant:normal;font-weight:normal;font-stretch:normal;font-size:3.52778px;font-family:Amiri;-inkscape-font-specification:Amiri;stroke-width:0.264583">[0.5, 0,5]</tspan></text>
  </g>
</svg>
