<svg version="1.1" xmlns="http://www.w3.org/2000/svg" viewBox="0 0 699.1361310348723 500.0978446446202" width="699.1361310348723" height="500.0978446446202">
  <!-- svg-source:excalidraw -->
  
  <defs>
    <style>
      @font-face {
        font-family: "Virgil";
        src: url("https://excalidraw.com/Virgil.woff2");
      }
      @font-face {
        font-family: "Cascadia";
        src: url("https://excalidraw.com/Cascadia.woff2");
      }
    </style>
  </defs>
  <rect x="0" y="0" width="699.1361310348723" height="500.0978446446202" fill="#ffffff"></rect><g stroke-linecap="round" transform="translate(10 10) rotate(0 81.4744633850209 71.08510228223304)"><path d="M1.39 -1.17 C54.18 2.18, 108.29 -1.57, 162.52 -0.88 M0.59 -0.37 C34.66 -0.37, 69.57 -1.61, 162.83 0.19 M163.04 -1.72 C162.68 47.45, 165.39 96.65, 162.49 142.2 M163.36 -0.45 C165.25 37.97, 165.2 77.5, 162.92 142.81 M164.93 143.23 C116.58 140.6, 70.64 143.44, 0.39 141.72 M163.08 142.47 C109.55 143.44, 55.4 142.02, 0.25 142.6 M-0.36 141.82 C0.39 111.08, -0.91 77.28, -1.06 -0.95 M-0.25 141.89 C-1.32 91.2, -0.46 39.65, 0.21 -0.92" stroke="#000000" stroke-width="1" fill="none"></path></g><g transform="translate(46.08935962021053 51.306380076657206) rotate(0 48.5 13)"><text x="0" y="18" font-family="Virgil, Segoe UI Emoji" font-size="20px" fill="#000000" text-anchor="start" style="white-space: pre;" direction="ltr">WASM file</text></g><g stroke-linecap="round"><g transform="translate(203.57020159931142 74.523400533104) rotate(0 80.12317152974316 1.0950559892154388)"><path d="M-1.1 1.06 C25.78 1.35, 134.51 1.94, 161.35 1.99 M0.52 0.57 C27.28 0.51, 133.72 -0.04, 160.7 0.33" stroke="#000000" stroke-width="1" fill="none"></path></g><g transform="translate(203.57020159931142 74.523400533104) rotate(0 80.12317152974316 1.0950559892154388)"><path d="M134.25 11.48 C142.64 6.26, 150.26 5.13, 159.02 1.96 M132.93 11.24 C140.45 8.05, 146.33 5.76, 160.51 -0.31" stroke="#000000" stroke-width="1" fill="none"></path></g><g transform="translate(203.57020159931142 74.523400533104) rotate(0 80.12317152974316 1.0950559892154388)"><path d="M134.31 -9.04 C142.73 -7.94, 150.33 -2.75, 159.02 1.96 M132.99 -9.28 C140.6 -7.11, 146.47 -4.05, 160.51 -0.31" stroke="#000000" stroke-width="1" fill="none"></path></g></g><g stroke-linecap="round" transform="translate(384.01699970036464 11.093616958188022) rotate(0 61.24254965853919 63.42978357491563)"><path d="M56.99 0.15 C65.8 -1.5, 77.61 1.02, 86.37 4.91 C95.13 8.79, 103.85 15.76, 109.56 23.45 C115.27 31.13, 119.12 41.26, 120.65 51.03 C122.18 60.8, 121.44 72.37, 118.75 82.07 C116.05 91.76, 111.15 102.28, 104.49 109.19 C97.82 116.11, 87.87 120.79, 78.75 123.56 C69.63 126.33, 58.78 127.48, 49.74 125.83 C40.7 124.17, 31.92 119.72, 24.5 113.66 C17.08 107.6, 9.19 98.34, 5.22 89.47 C1.25 80.6, 0.02 70.2, 0.67 60.44 C1.32 50.68, 4.42 39.4, 9.12 30.9 C13.82 22.4, 20.31 14.45, 28.88 9.45 C37.45 4.46, 54.32 2.44, 60.53 0.95 C66.74 -0.54, 66.03 -0.39, 66.14 0.5 M48.46 1.41 C57.14 -1.72, 68.93 -1.62, 78.15 1.12 C87.37 3.87, 97.09 10.91, 103.77 17.9 C110.45 24.9, 115.24 33.97, 118.23 43.1 C121.23 52.23, 122.85 62.81, 121.74 72.71 C120.62 82.6, 117.23 94.3, 111.54 102.47 C105.84 110.64, 96.36 117.7, 87.57 121.74 C78.78 125.79, 68.48 127.06, 58.81 126.73 C49.15 126.39, 38.05 124.65, 29.59 119.73 C21.12 114.82, 12.78 105.74, 8.04 97.26 C3.29 88.77, 1.54 78.76, 1.12 68.81 C0.7 58.87, 2.11 46.52, 5.52 37.59 C8.93 28.65, 14.41 21.14, 21.6 15.19 C28.79 9.23, 43.88 4.15, 48.67 1.84 C53.46 -0.46, 49.83 0.49, 50.34 1.36" stroke="#000000" stroke-width="1" fill="none"></path></g><g transform="translate(389.01699970036464 61.52340053310354) rotate(0 56 13)"><text x="56" y="18" font-family="Virgil, Segoe UI Emoji" font-size="20px" fill="#000000" text-anchor="middle" style="white-space: pre;" direction="ltr">dwarfdump</text></g><g stroke-linecap="round" transform="translate(224.34892380488725 227.62977467945234) rotate(0 109.5 44.5)"><path d="M86.22 0.52 C99.87 -1.43, 117.91 0.03, 132.5 1.37 C147.09 2.7, 161.74 5.01, 173.79 8.52 C185.85 12.04, 197.26 17.43, 204.82 22.46 C212.38 27.49, 217.49 32.77, 219.13 38.71 C220.78 44.65, 219.22 52.19, 214.69 58.09 C210.15 63.99, 201.99 69.57, 191.92 74.11 C181.84 78.66, 168.06 82.9, 154.26 85.34 C140.47 87.78, 123.93 88.66, 109.14 88.74 C94.36 88.81, 79.01 88.34, 65.53 85.82 C52.05 83.3, 38.28 78.19, 28.25 73.64 C18.21 69.08, 9.94 64.02, 5.31 58.49 C0.69 52.96, -1.16 46.41, 0.49 40.45 C2.15 34.49, 7.96 28.14, 15.26 22.72 C22.56 17.31, 32.04 11.52, 44.31 7.96 C56.59 4.4, 81.05 2.58, 88.91 1.37 C96.77 0.15, 91.23 -0.05, 91.49 0.67 M133.1 1.42 C146.76 2.33, 161.81 6.55, 173.74 10.16 C185.67 13.77, 197.22 18.25, 204.68 23.1 C212.15 27.95, 216.98 33.09, 218.51 39.25 C220.05 45.42, 218.44 53.96, 213.91 60.06 C209.37 66.17, 201.54 71.89, 191.31 75.88 C181.07 79.88, 166.52 81.63, 152.53 84.03 C138.53 86.42, 122.24 90.16, 107.33 90.24 C92.42 90.31, 76.35 87.01, 63.06 84.47 C49.78 81.93, 37.32 79.45, 27.62 75 C17.92 70.55, 9.33 63.93, 4.84 57.78 C0.36 51.63, -1.22 44.3, 0.71 38.09 C2.65 31.89, 8.8 25.31, 16.46 20.55 C24.13 15.8, 34.68 12.61, 46.7 9.54 C58.73 6.48, 74.37 3.62, 88.62 2.17 C102.86 0.72, 124.56 0.77, 132.17 0.85 C139.79 0.93, 134.68 1.9, 134.3 2.68" stroke="#000000" stroke-width="1" fill="none"></path></g><g transform="translate(229.34892380488725 259.12977467945234) rotate(0 104.5 13)"><text x="104.5" y="18" font-family="Virgil, Segoe UI Emoji" font-size="20px" fill="#000000" text-anchor="middle" style="white-space: pre;" direction="ltr">wasm-sourcemap.py</text></g><g stroke-linecap="round" transform="translate(558.9957130104763 171.85530981185366) rotate(0 65.070209012198 33.35531722474025)"><path d="M0.31 1.55 C37.41 -1.21, 70.53 0.73, 129.5 1.6 M0.13 -0.71 C44.82 -0.2, 91.49 -0.6, 131.14 -0.34 M128.62 1.31 C130.03 14.47, 131.92 28.89, 129.48 65.86 M129.72 0.38 C130.66 16.9, 131.01 35.04, 130.23 66.3 M129.33 65.34 C89.99 68.06, 49.92 68.4, -0.98 66.9 M130.91 67.54 C88.74 66.59, 46.82 66.55, -0.16 66.98 M-0.71 68.53 C-1.22 49.58, -1.1 34.78, 1.24 1.38 M0.32 65.96 C0.95 41.46, -0.51 15.37, -0.48 0.74" stroke="#000000" stroke-width="1" fill="none"></path></g><g transform="translate(563.9957130104763 179.2106270365939) rotate(0 60 26)"><text x="60" y="18" font-family="Virgil, Segoe UI Emoji" font-size="20px" fill="#000000" text-anchor="middle" style="white-space: pre;" direction="ltr">dwarf dump</text><text x="60" y="44" font-family="Virgil, Segoe UI Emoji" font-size="20px" fill="#000000" text-anchor="middle" style="white-space: pre;" direction="ltr">in TXT</text></g><g stroke-linecap="round"><g transform="translate(514.1574177247603 110.61276015331441) rotate(0 33.5035266331314 23.084536750473944)"><path d="M-1.02 0.06 C9.76 7.55, 54.62 37.95, 65.8 45.71 M0.64 -0.96 C11.7 6.65, 57.32 39.53, 68.03 47.13" stroke="#000000" stroke-width="1" fill="none"></path></g><g transform="translate(514.1574177247603 110.61276015331441) rotate(0 33.5035266331314 23.084536750473944)"><path d="M39.23 37.55 C50.09 41.34, 62.86 45.79, 67.09 45.98 M39.89 38.79 C48.06 41.77, 58.85 45.56, 67.1 47.13" stroke="#000000" stroke-width="1" fill="none"></path></g><g transform="translate(514.1574177247603 110.61276015331441) rotate(0 33.5035266331314 23.084536750473944)"><path d="M51.17 20.86 C57.48 31.07, 65.58 42.03, 67.09 45.98 M51.83 22.1 C56.15 30.48, 63.01 39.76, 67.1 47.13" stroke="#000000" stroke-width="1" fill="none"></path></g></g><g stroke-linecap="round"><g transform="translate(545.8723095122182 228.72339163764013) rotate(0 -45.14834031657938 19.59670632314021)"><path d="M-0.84 0.48 C-15.81 6.91, -75.49 31.73, -90.45 38.08 M0.93 -0.31 C-14.13 6.34, -75.86 32.79, -91.22 39.51" stroke="#000000" stroke-width="1" fill="none"></path></g><g transform="translate(545.8723095122182 228.72339163764013) rotate(0 -45.14834031657938 19.59670632314021)"><path d="M-68.62 19.44 C-75.3 24.21, -80 27.84, -91.45 41.39 M-69.74 18.85 C-77.91 26.04, -86.45 35.46, -91.65 40.07" stroke="#000000" stroke-width="1" fill="none"></path></g><g transform="translate(545.8723095122182 228.72339163764013) rotate(0 -45.14834031657938 19.59670632314021)"><path d="M-60.48 38.28 C-69.12 38.27, -75.86 37.18, -91.45 41.39 M-61.6 37.68 C-72.75 37.57, -84.43 39.73, -91.65 40.07" stroke="#000000" stroke-width="1" fill="none"></path></g></g><g stroke-linecap="round"><g transform="translate(177.32339460279468 167.4808419791009) rotate(0 35.59362632508919 29.481940462276384)"><path d="M-0.34 0.03 C11.73 9.99, 59.67 48.97, 71.52 59.02 M1.69 -1 C13.72 9.13, 59.44 49.51, 70.81 59.97" stroke="#000000" stroke-width="1" fill="none"></path></g><g transform="translate(177.32339460279468 167.4808419791009) rotate(0 35.59362632508919 29.481940462276384)"><path d="M43.02 49.5 C47.31 50.88, 55.75 52.11, 71.72 58.26 M42.76 49.44 C50.59 52.08, 56.94 53.09, 71.53 60.84" stroke="#000000" stroke-width="1" fill="none"></path></g><g transform="translate(177.32339460279468 167.4808419791009) rotate(0 35.59362632508919 29.481940462276384)"><path d="M56.73 34.23 C57.83 39.02, 63.17 43.7, 71.72 58.26 M56.47 34.17 C61 40.5, 64.07 45.17, 71.53 60.84" stroke="#000000" stroke-width="1" fill="none"></path></g></g><g stroke-linecap="round" transform="translate(64.13403943031597 347.9276400801541) rotate(0 81.5 71.08510228223304)"><path d="M0.03 -1.68 C56.7 1.85, 108.49 2.41, 162 -0.6 M0.63 0.96 C35.89 1.65, 73.58 1.27, 163.97 0.03 M162.2 1.57 C161.26 54.24, 162.74 108.58, 162.37 140.97 M162.52 0.91 C163.27 47.5, 164 95.94, 162.3 141.66 M161.13 142.3 C103.56 143.33, 40 142.32, -1.67 142.05 M162.3 142.56 C109.93 144.01, 56.37 142.61, -0.39 142.23 M0.93 143.36 C-1.41 109, -1.69 74.95, -1.28 0.25 M0.6 141.63 C-0.2 104.7, -0.92 68.04, 0.76 0.73" stroke="#000000" stroke-width="1" fill="none"></path></g><g transform="translate(69.13403943031597 367.51274236238714) rotate(0 76.5 52)"><text x="76.5" y="18" font-family="Virgil, Segoe UI Emoji" font-size="20px" fill="#000000" text-anchor="middle" style="white-space: pre;" direction="ltr">WASM file</text><text x="76.5" y="44" font-family="Virgil, Segoe UI Emoji" font-size="20px" fill="#000000" text-anchor="middle" style="white-space: pre;" direction="ltr">with embedded </text><text x="76.5" y="70" font-family="Virgil, Segoe UI Emoji" font-size="20px" fill="#000000" text-anchor="middle" style="white-space: pre;" direction="ltr">sourceMaps </text><text x="76.5" y="96" font-family="Virgil, Segoe UI Emoji" font-size="20px" fill="#000000" text-anchor="middle" style="white-space: pre;" direction="ltr">URL</text></g><g stroke-linecap="round"><g transform="translate(239.65956121952206 299.8084939198732) rotate(0 -29.58357496759197 18.94127406606424)"><path d="M1.08 -0.58 C-8.99 5.46, -50.37 30.9, -60.24 37.01 M0.18 1.73 C-9.55 7.9, -48.38 32.6, -58.15 38.46" stroke="#000000" stroke-width="1" fill="none"></path></g><g transform="translate(239.65956121952206 299.8084939198732) rotate(0 -29.58357496759197 18.94127406606424)"><path d="M-40.57 12.9 C-45.54 23.89, -52.82 30.25, -57.01 37.19 M-38.88 14.94 C-46.94 24.69, -54.89 33.49, -57.94 38.72" stroke="#000000" stroke-width="1" fill="none"></path></g><g transform="translate(239.65956121952206 299.8084939198732) rotate(0 -29.58357496759197 18.94127406606424)"><path d="M-29.75 30.34 C-38.21 35.98, -48.87 36.88, -57.01 37.19 M-28.06 32.38 C-40.54 35.09, -52.8 36.94, -57.94 38.72" stroke="#000000" stroke-width="1" fill="none"></path></g></g><g stroke-linecap="round" transform="translate(450.7276341498448 359.95742662022417) rotate(0 70.53829380313891 41.55744441115155)"><path d="M-0.92 0.82 C41 -0.76, 77.62 1.12, 142.35 1.66 M0.7 0.6 C51.42 -0.32, 101.14 -1.52, 141.82 0.55 M140.21 -0.57 C139.66 19.13, 139.3 37.77, 141.41 82.13 M141.18 -0.19 C141.7 21.43, 140.93 42.46, 141.8 83.06 M140.42 83.75 C90.44 81.61, 43.87 81.04, 0 81.78 M141.6 83.89 C101.06 82.62, 58.79 82.47, -0.68 83.88 M1.43 81.51 C1.23 61.48, -1.53 38.7, -0.39 1.32 M0.71 83.3 C0.93 55.66, 0.35 25.83, -0.84 -0.08" stroke="#000000" stroke-width="1" fill="none"></path></g><g transform="translate(455.7276341498448 388.5148710313756) rotate(0 65.5 13)"><text x="65.5" y="18" font-family="Virgil, Segoe UI Emoji" font-size="20px" fill="#000000" text-anchor="middle" style="white-space: pre;" direction="ltr">source map</text></g><g stroke-linecap="round"><g transform="translate(411.3574236550696 316.21274829269623) rotate(0 19.82980400990874 16.805558876930718)"><path d="M-0.42 0.65 C6.39 6.11, 33.61 28.14, 40.08 33.67 M1.55 -0.06 C8.34 4.99, 32.97 26.65, 39.51 32" stroke="#000000" stroke-width="1" fill="none"></path></g><g transform="translate(411.3574236550696 316.21274829269623) rotate(0 19.82980400990874 16.805558876930718)"><path d="M16.57 24.28 C22.57 23.64, 28.4 27.67, 38.43 31.57 M15.14 23.91 C22.99 25.67, 29.67 28.94, 39.58 31.52" stroke="#000000" stroke-width="1" fill="none"></path></g><g transform="translate(411.3574236550696 316.21274829269623) rotate(0 19.82980400990874 16.805558876930718)"><path d="M27.92 10.92 C31.38 13.35, 34.57 20.48, 38.43 31.57 M26.49 10.55 C31.24 16.1, 34.74 23.12, 39.58 31.52" stroke="#000000" stroke-width="1" fill="none"></path></g></g></svg>